<?xml version="1.0" standalone="no"?>
<!DOCTYPE svg PUBLIC "-//W3C//DTD SVG 20010904//EN"
 "http://www.w3.org/TR/2001/REC-SVG-20010904/DTD/svg10.dtd">
<svg version="1.0" xmlns="http://www.w3.org/2000/svg"
 width="720.000000pt" height="720.000000pt" viewBox="0 0 720.000000 720.000000"
 preserveAspectRatio="xMidYMid meet">
<metadata>
Created by potrace 1.14, written by Peter Selinger 2001-2017
</metadata>
<g transform="translate(0.000000,720.000000) scale(0.100000,-0.100000)"
fill="#000000" stroke="none">
<path d="M990 3600 l0 -940 200 0 200 0 0 770 0 770 537 0 c524 0 538 0 580
-21 67 -32 93 -85 93 -187 0 -119 -24 -166 -105 -203 -36 -17 -71 -19 -377
-19 l-338 0 0 -171 0 -170 383 3 c366 4 385 5 452 27 223 73 346 222 377 455
8 65 7 98 -5 171 -40 225 -182 379 -403 435 -74 19 -113 20 -836 20 l-758 0 0
-940z"/>
<path d="M3000 4538 c0 -2 173 -424 384 -938 l384 -935 285 -3 284 -2 21 49
c12 27 69 165 127 307 58 143 109 262 113 266 5 5 66 -134 137 -307 l129 -315
285 0 286 0 377 923 c208 507 380 930 384 940 6 16 -8 17 -193 17 l-199 0
-303 -742 c-167 -409 -310 -755 -318 -770 -14 -29 -47 -38 -56 -15 -2 6 -75
183 -161 393 -86 209 -156 385 -156 391 0 6 63 165 141 354 77 189 145 354
150 367 l9 22 -201 -2 -201 -3 -49 -119 c-27 -66 -51 -121 -53 -123 -2 -2 -26
51 -53 119 l-49 123 -203 3 c-191 2 -203 1 -199 -15 3 -10 71 -179 152 -376
l147 -359 -152 -371 c-188 -460 -168 -419 -193 -415 -17 3 -72 129 -335 771
l-314 767 -204 0 c-112 0 -203 -1 -203 -2z"/>
</g>
</svg>
